<svg version="1.1" id="Layer_1" xmlns="http://www.w3.org/2000/svg" xmlns:xlink="http://www.w3.org/1999/xlink" x="0px" y="0px"
	 width="100%" viewBox="0 0 400 300" enable-background="new 0 0 400 300" xml:space="preserve">
<path fill="#FFFFFF" opacity="1.000000" stroke="none" 
	d="
M280.000000,301.000000 
	C186.666687,301.000000 93.833366,301.000000 1.000037,301.000000 
	C1.000025,201.000031 1.000025,101.000069 1.000012,1.000078 
	C134.333267,1.000052 267.666534,1.000052 400.999878,1.000026 
	C400.999908,100.999931 400.999908,200.999863 400.999939,300.999878 
	C360.833344,301.000000 320.666656,301.000000 280.000000,301.000000 
M204.430389,243.626984 
	C205.963318,243.434586 207.496231,243.242188 209.776901,243.085098 
	C210.522476,243.028702 211.268066,242.972305 212.784164,242.969208 
	C215.178436,242.382812 217.572708,241.796432 220.779373,241.198517 
	C223.176575,240.568542 225.573761,239.938568 228.762650,239.236603 
	C231.569809,238.205261 234.376984,237.173920 237.869186,236.022430 
	C240.295395,234.792328 242.721619,233.562241 245.821976,232.110001 
	C248.563904,230.411026 251.305847,228.712051 254.646652,226.730408 
	C256.435822,225.147049 258.225006,223.563675 260.696655,221.945145 
	C264.255280,218.341888 267.813904,214.738632 271.767792,211.001877 
	C272.000305,210.808517 272.107239,210.560913 272.591827,210.018539 
	C272.685242,209.684891 272.778656,209.351227 273.176331,208.397385 
	C274.385803,207.025604 275.595276,205.653809 277.251556,203.887253 
	C278.192444,202.303833 279.133301,200.720398 280.643433,198.751495 
	C282.991882,193.838074 285.340363,188.924652 288.028656,183.309738 
	C289.055695,178.894272 290.082764,174.478821 291.029510,170.014114 
	C291.029510,170.014114 291.065857,170.100998 291.744934,169.702606 
	C291.988831,168.405197 292.232727,167.107803 292.821411,165.147629 
	C292.854767,156.771820 292.888123,148.395996 293.021240,139.171326 
	C291.982666,134.454773 290.944092,129.738205 289.940704,124.260735 
	C287.055878,117.796005 284.171082,111.331276 281.105896,104.180672 
	C275.242584,93.952118 267.634491,85.201202 258.300537,78.046265 
	C244.320114,67.329605 228.757675,60.395039 210.158447,58.903336 
	C199.261017,57.314812 188.579071,58.627975 177.259552,61.339260 
	C171.692795,63.282406 166.126053,65.225548 160.313919,67.254349 
	C170.952164,79.662605 199.720886,92.940186 208.256592,90.636658 
	C205.727676,87.690819 202.842239,84.329651 200.605255,80.664406 
	C201.736023,80.992363 202.866791,81.320320 204.690643,81.988777 
	C209.776779,83.370155 214.862930,84.751526 220.459152,86.649445 
	C223.411819,87.434006 226.364487,88.218567 229.513016,89.055176 
	C228.854355,86.212105 228.430756,84.383629 228.600235,82.939590 
	C231.049881,85.602524 233.581589,88.195282 235.931641,90.943382 
	C240.442245,96.218002 244.643478,101.773621 249.376144,106.835800 
	C252.293655,109.956429 255.948807,112.404350 260.717438,110.596458 
	C260.966217,109.403427 261.209839,108.235306 261.453430,107.067192 
	C261.994141,106.882492 262.534821,106.697784 263.075531,106.513077 
	C265.195984,110.619202 267.316437,114.725334 269.445129,119.730797 
	C270.367645,126.605377 268.563782,132.654495 263.229584,137.925598 
	C262.422028,136.412033 261.614471,134.898468 261.073456,133.884460 
	C258.136658,137.121506 255.270065,140.281204 252.403442,143.440903 
	C252.122955,143.154205 251.842468,142.867523 251.561981,142.580841 
	C251.989105,140.046677 252.416245,137.512527 253.414673,135.194809 
	C253.741486,135.730301 254.068298,136.265793 254.395081,136.801300 
	C256.939789,130.501602 256.363586,126.147881 252.507263,123.316185 
	C251.986984,125.224953 251.479401,127.087128 250.695038,129.584381 
	C249.278549,131.197723 247.862076,132.811066 246.229263,134.670822 
	C244.916290,131.919312 243.971970,129.940353 243.380539,128.700912 
	C241.041946,129.955994 239.083984,131.006805 237.682220,131.489960 
	C238.803009,126.736176 237.980408,122.413757 233.585297,119.882256 
	C230.399139,118.047081 226.681168,117.135162 222.583084,115.333382 
	C217.736359,114.638695 212.889633,113.944000 207.215622,113.115303 
	C204.812866,113.424316 202.410095,113.733330 199.508698,113.753479 
	C199.460403,113.195847 199.175186,112.297012 199.403839,112.138245 
	C200.537552,111.351028 201.806854,110.759094 203.872910,110.047569 
	C209.338364,109.258125 214.803833,108.468681 220.944992,107.885063 
	C227.028320,110.859596 233.111664,113.834129 239.194992,116.808662 
	C239.454147,116.331543 239.713318,115.854431 239.972473,115.377312 
	C238.321823,114.094276 236.708954,112.758598 235.011841,111.540291 
	C232.342834,109.624298 231.776993,107.525192 234.948196,105.117828 
	C236.104431,104.970154 237.260681,104.822479 238.735260,104.634140 
	C233.083878,99.123825 228.745453,97.787727 217.084854,97.914139 
	C212.390045,98.276733 207.695251,98.639328 202.282227,98.849365 
	C196.872375,96.806335 191.462509,94.763306 185.894409,92.094147 
	C178.494354,86.813690 171.112747,81.506844 163.659332,76.302834 
	C163.062332,75.886009 161.970337,76.178131 160.584686,75.690636 
	C159.224945,73.728432 157.865204,71.766235 156.033371,69.122757 
	C150.407867,73.477165 145.149292,77.547554 139.346283,81.874939 
	C139.132767,82.200874 138.919235,82.526817 138.837692,82.813812 
	C138.837692,82.813812 138.742950,82.714027 138.126480,82.964211 
	C134.508652,87.001755 130.890839,91.039307 126.777451,95.551270 
	C124.563179,99.042168 122.348915,102.533058 119.707542,106.524063 
	C119.162872,107.692642 118.618202,108.861221 117.603989,110.546654 
	C115.440002,116.703087 113.276016,122.859528 110.810860,129.732117 
	C110.251968,133.166199 109.693069,136.600296 108.922180,140.847061 
	C106.442596,154.698822 109.111656,167.981628 113.562927,181.854767 
	C117.446121,192.678513 122.762016,202.662430 130.978012,211.740082 
	C144.911148,227.885071 162.498383,237.754547 183.305939,241.923691 
	C186.099335,242.483398 189.098480,242.016235 192.502960,242.110031 
	C192.663437,242.056107 192.823898,242.002197 193.076248,242.662643 
	C195.021439,242.810867 196.966629,242.959091 199.754196,243.135605 
	C201.135849,243.160614 202.517502,243.185623 204.430389,243.626984 
z"/>
<path fill="#03A0FE" opacity="1.000000" stroke="none" 
	d="
M281.286255,104.866547 
	C284.171082,111.331276 287.055878,117.796005 289.671143,124.878044 
	C289.485474,127.184204 289.569366,128.873062 289.656586,130.629028 
	C283.661530,129.816589 272.575958,123.254257 269.436890,118.831459 
	C267.316437,114.725334 265.195984,110.619202 263.075531,106.513077 
	C262.534821,106.697784 261.994141,106.882492 261.453430,107.067192 
	C261.209839,108.235306 260.966217,109.403427 260.717438,110.596458 
	C255.948807,112.404350 252.293655,109.956429 249.376144,106.835800 
	C244.643478,101.773621 240.442245,96.218002 235.931641,90.943382 
	C233.581589,88.195282 231.049881,85.602524 228.189880,82.532730 
	C227.319321,81.997261 226.859100,81.868660 226.087433,81.492065 
	C222.403473,79.778908 223.195908,82.005295 223.264572,84.076309 
	C221.998138,84.942978 220.973602,85.537933 219.949066,86.132889 
	C214.862930,84.751526 209.776779,83.370155 204.260223,81.493912 
	C201.238281,79.983162 198.646759,78.967262 195.883575,77.658783 
	C190.430984,74.053619 185.219742,70.621895 179.840408,67.477715 
	C177.067719,65.857086 175.156143,64.394157 177.997406,61.291630 
	C188.579071,58.627975 199.261017,57.314812 210.264542,59.278198 
	C207.059967,59.904018 203.749313,60.154976 198.992065,60.515591 
	C201.786957,62.383553 203.227051,63.465569 204.774490,64.362343 
	C227.950043,77.793106 251.104416,91.261658 274.395752,104.488937 
	C276.186523,105.505913 278.966217,104.781532 281.286255,104.866547 
z"/>
<path fill="#025EF9" opacity="1.000000" stroke="none" 
	d="
M271.372498,211.135361 
	C267.813904,214.738632 264.255280,218.341888 260.343506,221.546417 
	C259.727112,219.357605 259.652496,217.514847 259.169769,215.786057 
	C256.270782,205.404129 244.154602,199.925888 235.315826,204.893219 
	C235.223907,204.812042 235.001801,204.916107 234.737274,204.910828 
	C234.296783,204.893631 234.120804,204.881683 233.679016,204.703918 
	C230.790329,205.085983 227.975037,206.021347 227.792633,201.776917 
	C227.830261,201.824738 227.708893,201.833786 228.000610,201.759796 
	C228.495880,201.355164 228.699448,201.024536 228.983871,200.485657 
	C229.283859,200.043533 229.553360,199.936752 230.222229,199.929520 
	C231.009979,199.432129 231.448730,198.962341 232.126465,198.270233 
	C232.472702,197.801285 232.616470,197.561874 232.667450,197.304123 
	C232.685333,197.213730 232.491989,197.001755 232.366852,196.974380 
	C225.911819,195.561722 219.453751,194.163010 212.900269,192.411987 
	C210.839600,191.464783 208.668625,191.222290 206.941864,190.216873 
	C190.949661,180.905212 175.116852,171.316589 159.037003,162.160965 
	C155.102936,159.920975 151.854034,157.728241 151.035019,152.677399 
	C149.748398,152.610016 148.586288,152.864716 147.120193,153.193253 
	C146.567078,153.586212 146.317932,153.905319 145.954681,154.498825 
	C144.945343,155.536652 144.050140,156.300095 142.826584,156.922455 
	C141.666794,155.521500 140.835342,154.261658 140.284775,152.796631 
	C140.900742,151.275574 141.235840,149.959671 141.712006,148.747162 
	C141.853088,148.850555 141.541733,148.691116 141.882584,148.653595 
	C142.429749,148.010864 142.636063,147.405655 142.860718,146.851471 
	C142.879044,146.902466 142.771301,146.890610 143.047791,146.792511 
	C143.455902,146.344391 143.587509,145.994370 143.735703,145.718445 
	C143.752289,145.792542 143.615341,145.726898 143.918198,145.688599 
	C144.306229,145.292572 144.391403,144.934830 144.547058,144.560333 
	C144.617554,144.543579 144.481079,144.494843 144.818024,144.536865 
	C145.419434,144.007065 145.683899,143.435226 146.026062,142.606277 
	C146.412796,141.920792 146.721832,141.492401 147.299866,140.960846 
	C148.163162,140.373642 148.757416,139.889587 149.435944,139.748047 
	C150.090790,141.265747 150.342896,142.978790 151.280579,143.533981 
	C162.139832,149.963654 173.114456,156.198074 184.035736,162.523575 
	C206.307190,175.422974 228.499878,188.460327 250.868042,201.189514 
	C257.456024,204.938568 264.524323,207.843552 271.372498,211.135361 
z"/>
<path fill="#0064FA" opacity="1.000000" stroke="none" 
	d="
M271.570129,211.068619 
	C264.524323,207.843552 257.456024,204.938568 250.868042,201.189514 
	C228.499878,188.460327 206.307190,175.422974 184.035736,162.523575 
	C173.114456,156.198074 162.139832,149.963654 151.280579,143.533981 
	C150.342896,142.978790 150.090790,141.265747 149.499146,139.742767 
	C149.478058,139.394974 149.592270,139.449188 149.888214,139.521729 
	C150.329056,139.254929 150.473938,138.915619 150.675934,138.565674 
	C150.733032,138.555054 150.644302,138.630035 150.936951,138.654068 
	C151.494797,138.409119 151.759979,138.140137 152.272095,137.668655 
	C153.867950,136.485062 155.216873,135.503967 156.684814,134.917511 
	C158.635513,137.250671 160.151688,139.712814 162.352432,141.038788 
	C172.976776,147.440079 183.699463,153.691528 194.563538,159.676132 
	C200.316055,162.845001 206.427994,165.361374 212.268402,168.378647 
	C212.159134,168.584976 212.077103,169.044647 211.984146,169.415192 
	C217.856903,174.714600 224.743805,174.476639 231.703857,173.696365 
	C230.411972,174.751221 229.208252,175.443558 227.374069,176.498505 
	C228.716858,177.662384 229.543396,178.638031 230.585495,179.241470 
	C239.771301,184.560577 248.923080,189.945786 258.234070,195.038773 
	C264.295898,198.354553 270.605927,201.216675 276.804749,204.282013 
	C275.595276,205.653809 274.385803,207.025604 272.817841,208.859283 
	C272.335754,209.633820 272.212158,209.946442 272.088562,210.259079 
	C272.107239,210.560913 272.000305,210.808517 271.570129,211.068619 
z"/>
<path fill="#0336F6" opacity="1.000000" stroke="none" 
	d="
M130.708557,211.104309 
	C122.762016,202.662430 117.446121,192.678513 113.834213,181.571182 
	C114.597511,181.933762 115.439301,182.535324 115.528259,183.232880 
	C116.596718,191.611069 124.888100,190.157501 129.605637,193.532288 
	C129.737198,193.626389 130.837265,192.366623 131.717712,191.964325 
	C134.937149,195.553314 137.924576,198.916122 141.063187,202.560379 
	C143.094742,204.244797 144.975082,205.647766 147.007004,207.346283 
	C147.661438,207.536545 148.164291,207.431290 148.698578,207.668823 
	C149.080170,208.284698 149.430328,208.557770 149.935760,209.016998 
	C154.279236,211.342545 158.467422,213.481949 162.682495,215.608536 
	C162.709366,215.595718 162.683578,215.643463 162.811462,215.843872 
	C163.227249,216.205139 163.536118,216.280960 163.859161,216.204620 
	C163.852417,216.137512 163.737000,216.207321 163.844757,216.544312 
	C166.020630,217.545502 168.088730,218.209717 170.209946,218.890488 
	C170.263062,218.907043 170.373749,218.918381 170.675018,219.093689 
	C176.647171,220.792603 182.318039,222.316193 188.306824,223.973755 
	C190.081543,224.708206 191.538345,225.308655 193.311142,226.050507 
	C201.057404,231.599640 200.847290,236.750427 192.984375,241.948303 
	C192.823898,242.002197 192.663437,242.056107 191.979767,241.770706 
	C189.174500,241.192902 186.890076,240.736191 184.610825,240.760757 
	C179.649506,240.814194 177.827408,236.183609 174.288956,234.148346 
	C167.712753,230.365799 161.242203,226.382538 154.533386,222.852051 
	C146.700302,218.729904 138.659332,215.002808 130.708557,211.104309 
z"/>
<path fill="#02A9FF" opacity="1.000000" stroke="none" 
	d="
M281.196075,104.523605 
	C278.966217,104.781532 276.186523,105.505913 274.395752,104.488937 
	C251.104416,91.261658 227.950043,77.793106 204.774490,64.362343 
	C203.227051,63.465569 201.786957,62.383553 198.992065,60.515591 
	C203.749313,60.154976 207.059967,59.904018 210.669907,59.383541 
	C228.757675,60.395039 244.320114,67.329605 258.300537,78.046265 
	C267.634491,85.201202 275.242584,93.952118 281.196075,104.523605 
z"/>
<path fill="#0484FC" opacity="1.000000" stroke="none" 
	d="
M252.843384,134.978363 
	C252.416245,137.512527 251.989105,140.046677 251.561981,142.580841 
	C251.842468,142.867523 252.122955,143.154205 252.403442,143.440903 
	C255.270065,140.281204 258.136658,137.121506 261.073456,133.884460 
	C261.614471,134.898468 262.422028,136.412033 263.606445,138.281235 
	C265.365570,140.438248 266.747864,142.239624 267.973206,144.319000 
	C267.077362,145.358948 266.338470,146.120926 265.304077,147.011795 
	C262.765747,149.019012 260.522888,150.897308 257.946259,152.852905 
	C254.089615,153.688156 250.566788,154.446091 246.684082,155.106003 
	C245.581787,154.953156 244.839355,154.898331 243.844604,154.719208 
	C243.412674,154.540878 243.233078,154.486862 242.791504,154.253265 
	C240.706543,152.919144 238.771210,151.906448 237.088943,150.574219 
	C234.977631,148.902252 233.073715,146.968399 230.922485,144.796387 
	C228.678284,143.226364 226.591888,142.007538 224.436737,140.748550 
	C224.033936,138.019394 223.589951,135.011246 223.101700,131.585785 
	C223.920761,128.270233 222.475708,126.797417 219.846588,126.284126 
	C215.809235,125.495911 211.743301,124.854027 207.981079,123.858292 
	C211.516113,123.046623 214.759552,122.526711 218.375488,122.063683 
	C219.498535,122.080688 220.249084,122.040817 221.418625,122.070206 
	C222.983505,122.183723 224.129379,122.227974 225.531647,122.488586 
	C230.859390,124.256203 235.831345,125.927971 237.126022,132.057602 
	C239.083984,131.006805 241.041946,129.955994 243.380539,128.700912 
	C243.971970,129.940353 244.916290,131.919312 246.229263,134.670822 
	C247.862076,132.811066 249.278549,131.197723 251.170792,129.436737 
	C252.045502,131.185501 252.444443,133.081940 252.843384,134.978363 
z"/>
<path fill="#0587FC" opacity="1.000000" stroke="none" 
	d="
M139.890717,81.617943 
	C145.149292,77.547554 150.407867,73.477165 156.033371,69.122757 
	C157.865204,71.766235 159.224945,73.728432 160.908813,76.211807 
	C162.256470,77.796227 163.477066,78.730408 164.271790,79.943550 
	C169.669296,88.182800 177.405609,93.556816 186.271545,98.152100 
	C190.369019,100.256577 194.180664,102.139786 197.747833,103.994514 
	C197.503357,103.966042 197.021667,104.067535 196.606720,104.002441 
	C194.795212,103.954445 193.398651,103.971527 191.592941,103.914368 
	C186.974274,103.170082 182.764786,102.500031 178.252258,101.605316 
	C173.982300,99.700478 169.768494,98.429962 166.115707,96.228539 
	C162.215485,93.878006 158.452789,92.563835 153.763733,93.626350 
	C149.122345,90.950737 144.654373,88.625221 140.364594,86.007683 
	C139.482544,85.469467 139.266159,83.840332 138.742950,82.714027 
	C138.742950,82.714027 138.837692,82.813812 139.071701,82.743919 
	C139.500717,82.321999 139.695724,81.969971 139.890717,81.617943 
z"/>
<path fill="#B5D4FF" opacity="1.000000" stroke="none" 
	d="
M197.992294,104.022995 
	C194.180664,102.139786 190.369019,100.256577 186.280273,97.724213 
	C186.019669,95.623466 186.036163,94.171867 186.052658,92.720276 
	C191.462509,94.763306 196.872375,96.806335 202.640747,99.384438 
	C203.008957,103.312454 203.018677,106.705406 203.028381,110.098351 
	C201.806854,110.759094 200.537552,111.351028 199.403839,112.138245 
	C199.175186,112.297012 199.460403,113.195847 199.755783,114.348892 
	C200.009109,118.253883 200.015350,121.563461 199.690689,124.920319 
	C198.242218,125.649765 197.124680,126.331917 196.095398,127.178772 
	C196.454102,127.232277 196.724548,127.121071 197.441162,126.994713 
	C201.244904,127.282166 204.602478,127.584778 207.973068,128.367874 
	C207.655136,135.840958 207.324203,142.833572 206.642349,149.740311 
	C200.681458,147.758072 195.003510,146.034180 189.500900,143.865387 
	C187.737411,143.170319 186.437546,141.298935 185.372253,139.936432 
	C188.640640,139.308884 191.462326,138.710648 194.570175,138.144287 
	C195.228043,138.088409 195.599747,138.000641 196.339020,137.941589 
	C198.667480,137.311722 200.628387,136.653152 203.990952,135.523834 
	C199.130890,133.385208 195.576721,131.821213 192.026794,129.812805 
	C192.024490,121.251450 192.017960,113.134537 192.015686,104.760315 
	C192.013992,104.331535 192.008041,104.160072 192.002106,103.988617 
	C193.398651,103.971527 194.795212,103.954445 196.695709,104.162468 
	C197.463882,104.266052 197.728088,104.144524 197.992294,104.022995 
z"/>
<path fill="#026AFA" opacity="1.000000" stroke="none" 
	d="
M277.028137,204.084641 
	C270.605927,201.216675 264.295898,198.354553 258.234070,195.038773 
	C248.923080,189.945786 239.771301,184.560577 230.585495,179.241470 
	C229.543396,178.638031 228.716858,177.662384 227.374069,176.498505 
	C229.208252,175.443558 230.411972,174.751221 232.015442,173.564209 
	C235.588333,171.321945 238.761505,169.574326 241.954788,168.226486 
	C242.793762,173.624283 246.235703,175.503174 251.902222,174.383820 
	C253.778610,177.561081 255.586716,180.362686 257.653015,183.463379 
	C259.939148,184.260681 261.967041,184.758881 263.997009,185.626923 
	C264.982941,187.519073 265.644592,189.481461 267.010742,190.481750 
	C271.220642,193.564270 275.699677,196.279205 280.074158,199.136963 
	C279.133301,200.720398 278.192444,202.303833 277.028137,204.084641 
z"/>
<path fill="#0696FD" opacity="1.000000" stroke="none" 
	d="
M177.628479,61.315445 
	C175.156143,64.394157 177.067719,65.857086 179.840408,67.477715 
	C185.219742,70.621895 190.430984,74.053619 195.835419,77.711037 
	C195.958954,78.055870 195.865158,78.162628 195.524628,78.146713 
	C194.611099,78.201508 194.038101,78.272202 193.465088,78.342903 
	C193.444122,78.626091 193.423157,78.909279 193.402191,79.192467 
	C194.950485,79.466003 196.498779,79.739548 198.025085,80.000671 
	C198.003082,79.988251 197.961868,79.959038 197.857483,80.412704 
	C198.514313,80.915451 199.275543,80.964523 200.016602,81.002640 
	C199.996414,80.991692 199.956802,80.968498 199.956802,80.968491 
	C202.842239,84.329651 205.727676,87.690819 208.256592,90.636658 
	C199.720886,92.940186 170.952164,79.662605 160.313919,67.254349 
	C166.126053,65.225548 171.692795,63.282406 177.628479,61.315445 
z"/>
<path fill="#0393FD" opacity="1.000000" stroke="none" 
	d="
M268.130157,144.041000 
	C266.747864,142.239624 265.365570,140.438248 263.970459,138.246017 
	C268.563782,132.654495 270.367645,126.605377 269.441010,119.281128 
	C272.575958,123.254257 283.661530,129.816589 289.656586,130.629028 
	C289.569366,128.873062 289.485474,127.184204 289.653564,125.258499 
	C290.944092,129.738205 291.982666,134.454773 292.691833,139.897095 
	C292.141541,144.566284 291.920624,148.509720 291.603149,154.176483 
	C288.049133,151.642456 285.433563,149.777542 282.848511,147.549347 
	C280.685974,140.914429 278.101440,139.693680 271.769989,142.040985 
	C271.345581,142.021072 271.175537,142.019272 270.890076,141.848419 
	C270.636658,141.921722 270.498657,142.164062 270.286743,142.377640 
	C270.212830,142.348862 270.295868,142.213730 270.000793,142.269196 
	C269.500641,142.652435 269.295624,142.980225 269.003723,143.508698 
	C268.703552,143.936096 268.441345,144.046646 268.130157,144.041000 
z"/>
<path fill="#0441F7" opacity="1.000000" stroke="none" 
	d="
M131.485703,191.738159 
	C130.837265,192.366623 129.737198,193.626389 129.605637,193.532288 
	C124.888100,190.157501 116.596718,191.611069 115.528259,183.232880 
	C115.439301,182.535324 114.597511,181.933762 113.737312,181.188263 
	C109.111656,167.981628 106.442596,154.698822 109.297401,140.750702 
	C109.876053,144.923782 110.079483,149.193222 110.266716,153.122696 
	C113.582253,154.352875 116.451302,155.417404 119.113937,156.405334 
	C120.014198,154.528015 120.873680,152.735733 121.784393,151.369904 
	C122.839401,160.535324 123.843178,169.274307 124.701935,178.126144 
	C124.726173,178.483414 124.895416,178.727829 125.032333,178.981476 
	C125.000015,178.990723 125.038361,178.935486 125.029510,179.217682 
	C125.344025,180.010300 125.667381,180.520752 126.217575,181.213928 
	C126.572311,181.939331 126.700211,182.482010 126.610817,183.247589 
	C127.627419,185.635361 128.861313,187.800217 130.056931,189.975067 
	C130.018646,189.985062 130.053223,189.913879 130.069016,190.243622 
	C130.526215,190.966187 130.967621,191.358978 131.429581,191.756699 
	C131.450134,191.761627 131.485703,191.738159 131.485703,191.738159 
z"/>
<path fill="#B5D4FF" opacity="1.000000" stroke="none" 
	d="
M193.030304,242.305481 
	C200.847290,236.750427 201.057404,231.599640 193.327881,225.633881 
	C194.029739,217.290680 195.735565,209.469086 191.980804,201.689621 
	C192.450562,200.972183 192.772507,200.502411 193.386047,199.889984 
	C195.469727,198.197662 197.261810,196.648010 199.235901,195.354828 
	C200.603043,196.027344 201.788177,196.443405 203.190018,197.193054 
	C203.937622,199.315674 204.910599,201.100281 204.928665,202.894501 
	C205.059845,215.927963 204.998581,228.963379 204.748779,241.998810 
	C204.499390,241.999451 204.000610,242.000610 203.607025,241.999695 
	C201.779572,242.368301 200.345703,242.737823 198.911819,243.107330 
	C196.966629,242.959091 195.021439,242.810867 193.030304,242.305481 
z"/>
<path fill="#0587FC" opacity="1.000000" stroke="none" 
	d="
M282.817993,147.912628 
	C285.433563,149.777542 288.049133,151.642456 291.603149,154.176483 
	C291.920624,148.509720 292.141541,144.566284 292.641968,140.321518 
	C292.888123,148.395996 292.854767,156.771820 292.294647,165.691986 
	C291.533875,167.524551 291.299866,168.812775 291.065857,170.100998 
	C291.065857,170.100998 291.029510,170.014114 290.666199,170.019409 
	C286.326813,168.007767 282.350769,165.990814 278.246948,163.686096 
	C275.788452,159.579605 273.457733,155.760910 271.156006,151.582260 
	C271.177734,150.500610 271.170502,149.778915 271.360168,148.853668 
	C272.032776,147.840057 272.508453,147.029999 273.351685,146.092804 
	C277.365692,143.747345 280.159698,145.512894 282.817993,147.912628 
z"/>
<path fill="#ABCFFF" opacity="1.000000" stroke="none" 
	d="
M204.998169,241.998169 
	C204.998581,228.963379 205.059845,215.927963 204.928665,202.894501 
	C204.910599,201.100281 203.937622,199.315674 203.630402,197.211777 
	C207.643906,197.542816 211.433746,198.188721 214.861755,199.038422 
	C214.000000,200.901855 213.104752,202.552887 213.068451,204.222595 
	C212.909668,211.522049 213.124420,218.829727 212.959702,226.128906 
	C212.833328,231.728851 212.342438,237.320557 212.013641,242.915924 
	C211.268066,242.972305 210.522476,243.028702 209.173141,242.785370 
	C207.378983,242.323166 206.188568,242.160660 204.998169,241.998169 
z"/>
<path fill="#032FF5" opacity="1.000000" stroke="none" 
	d="
M130.843292,211.422195 
	C138.659332,215.002808 146.700302,218.729904 154.533386,222.852051 
	C161.242203,226.382538 167.712753,230.365799 174.288956,234.148346 
	C177.827408,236.183609 179.649506,240.814194 184.610825,240.760757 
	C186.890076,240.736191 189.174500,241.192902 191.729462,241.727982 
	C189.098480,242.016235 186.099335,242.483398 183.305939,241.923691 
	C162.498383,237.754547 144.911148,227.885071 130.843292,211.422195 
z"/>
<path fill="#0371FB" opacity="1.000000" stroke="none" 
	d="
M120.134644,106.023956 
	C122.348915,102.533058 124.563179,99.042168 127.254257,95.539719 
	C130.857086,97.697754 133.983093,99.867340 136.909119,102.342743 
	C136.273605,102.872078 135.838074,103.095589 134.206100,103.933128 
	C140.397858,103.933128 145.416779,103.933128 150.429977,103.933128 
	C145.505417,107.824364 140.900574,111.462982 135.885986,115.072372 
	C129.290634,113.859764 124.042038,111.082542 120.134644,106.023956 
z"/>
<path fill="#A3CAFF" opacity="1.000000" stroke="none" 
	d="
M212.398895,242.942566 
	C212.342438,237.320557 212.833328,231.728851 212.959702,226.128906 
	C213.124420,218.829727 212.909668,211.522049 213.068451,204.222595 
	C213.104752,202.552887 214.000000,200.901855 215.233139,199.053131 
	C217.819458,199.227310 219.672562,199.590576 221.524979,199.953705 
	C220.337555,202.741470 218.862396,204.932068 218.525085,207.285751 
	C217.976608,211.112839 218.172607,215.046600 218.261627,218.951340 
	C218.468857,218.967331 218.884232,218.950836 219.202362,219.232025 
	C219.669342,226.745499 219.818161,233.977783 219.966980,241.210052 
	C217.572708,241.796432 215.178436,242.382812 212.398895,242.942566 
z"/>
<path fill="#96C2FF" opacity="1.000000" stroke="none" 
	d="
M233.944824,204.869720 
	C234.120804,204.881683 234.296783,204.893631 234.738434,205.363342 
	C235.340622,215.064758 235.648224,224.309677 236.060516,233.549911 
	C236.099747,234.429092 236.793991,235.279053 237.184143,236.142578 
	C234.376984,237.173920 231.569809,238.205261 228.376465,238.770081 
	C227.993530,236.318817 228.141998,234.321701 227.973953,232.351593 
	C227.362976,225.187698 226.646072,218.032837 226.141510,210.592819 
	C228.857544,208.497284 231.401184,206.683517 233.944824,204.869720 
z"/>
<path fill="#0577FB" opacity="1.000000" stroke="none" 
	d="
M137.109116,102.036926 
	C133.983093,99.867340 130.857086,97.697754 127.502029,95.302513 
	C130.890839,91.039307 134.508652,87.001755 138.434723,82.839119 
	C139.266159,83.840332 139.482544,85.469467 140.364594,86.007683 
	C144.654373,88.625221 149.122345,90.950737 153.395081,93.713120 
	C148.498947,96.306221 143.734970,98.565849 138.825043,100.696396 
	C138.491730,100.831482 138.304367,101.095634 138.019836,101.556717 
	C137.688873,101.955414 137.417679,102.049843 137.109116,102.036926 
z"/>
<path fill="#8EBEFF" opacity="1.000000" stroke="none" 
	d="
M237.526672,236.082504 
	C236.793991,235.279053 236.099747,234.429092 236.060516,233.549911 
	C235.648224,224.309677 235.340622,215.064758 235.002960,205.368622 
	C235.001801,204.916107 235.223907,204.812042 235.663300,204.788269 
	C238.729080,205.815323 241.355469,206.866165 243.987259,208.393509 
	C243.995117,211.007416 243.897324,213.150543 244.019333,215.281097 
	C244.345032,220.967667 244.765213,226.648834 245.147827,232.332138 
	C242.721619,233.562241 240.295395,234.792328 237.526672,236.082504 
z"/>
<path fill="#025EF9" opacity="1.000000" stroke="none" 
	d="
M111.112030,129.015961 
	C113.276016,122.859528 115.440002,116.703087 118.079208,110.501251 
	C117.354630,113.949898 116.154846,117.443939 114.721359,121.618576 
	C119.999954,122.194611 123.078117,130.056625 129.321899,124.873657 
	C127.328331,129.525070 125.476929,133.862579 123.276375,138.264343 
	C121.339371,140.280426 119.854607,141.160339 117.103867,139.693100 
	C113.299644,137.663940 109.495979,136.180984 111.896774,130.710114 
	C112.062332,130.332825 111.393066,129.589218 111.112030,129.015961 
z"/>
<path fill="#026AFA" opacity="1.000000" stroke="none" 
	d="
M129.464050,124.559723 
	C123.078117,130.056625 119.999954,122.194611 114.721359,121.618576 
	C116.154846,117.443939 117.354630,113.949898 118.313980,110.242828 
	C118.618202,108.861221 119.162872,107.692642 119.921097,106.274010 
	C124.042038,111.082542 129.290634,113.859764 135.751434,115.371155 
	C134.768585,117.159309 133.510513,118.619453 131.975098,120.186188 
	C131.545212,120.642731 131.392685,120.992668 131.234253,121.250656 
	C131.228378,121.158691 131.399033,121.228294 131.068924,121.296028 
	C130.532227,121.964142 130.325653,122.564522 130.103912,123.117989 
	C130.088745,123.071075 130.187225,123.076157 129.919510,123.191330 
	C129.557678,123.662949 129.463547,124.019394 129.412445,124.411850 
	C129.455490,124.447853 129.464050,124.559723 129.464050,124.559723 
z"/>
<path fill="#0371FB" opacity="1.000000" stroke="none" 
	d="
M280.358795,198.944214 
	C275.699677,196.279205 271.220642,193.564270 267.010742,190.481750 
	C265.644592,189.481461 264.982941,187.519073 264.254883,185.565216 
	C264.685638,185.158981 264.860565,185.184280 265.175415,185.396805 
	C265.558105,185.798065 265.840729,185.919464 266.461670,185.913086 
	C267.240265,185.296143 267.720367,184.714325 268.548767,184.107452 
	C271.232727,182.628006 273.568298,181.173599 276.035339,180.055115 
	C279.842926,186.528488 283.163544,187.571808 287.688812,184.011230 
	C285.340363,188.924652 282.991882,193.838074 280.358795,198.944214 
z"/>
<path fill="#9CC6FF" opacity="1.000000" stroke="none" 
	d="
M225.969116,210.874573 
	C226.646072,218.032837 227.362976,225.187698 227.973953,232.351593 
	C228.141998,234.321701 227.993530,236.318817 227.980621,238.806061 
	C225.573761,239.938568 223.176575,240.568542 220.373169,241.204285 
	C219.818161,233.977783 219.669342,226.745499 219.259674,218.976837 
	C218.990005,218.266312 218.981140,218.092148 218.980469,217.955109 
	C218.988693,217.992249 218.913635,218.004425 219.233749,217.895233 
	C221.692276,215.482224 223.830688,213.178391 225.969116,210.874573 
z"/>
<path fill="#0354F8" opacity="1.000000" stroke="none" 
	d="
M110.961441,129.374039 
	C111.393066,129.589218 112.062332,130.332825 111.896774,130.710114 
	C109.495979,136.180984 113.299644,137.663940 117.103867,139.693100 
	C119.854607,141.160339 121.339371,140.280426 123.198502,138.680206 
	C122.890907,143.002350 122.312027,146.972900 121.733154,150.943451 
	C120.873680,152.735733 120.014198,154.528015 119.113937,156.405334 
	C116.451302,155.417404 113.582253,154.352875 110.266716,153.122696 
	C110.079483,149.193222 109.876053,144.923782 109.403397,140.344360 
	C109.693069,136.600296 110.251968,133.166199 110.961441,129.374039 
z"/>
<path fill="#0577FB" opacity="1.000000" stroke="none" 
	d="
M287.858734,183.660492 
	C283.163544,187.571808 279.842926,186.528488 276.146667,179.720261 
	C279.339478,174.391632 279.465393,169.273468 278.374725,163.973862 
	C282.350769,165.990814 286.326813,168.007767 290.706329,170.044037 
	C290.082764,174.478821 289.055695,178.894272 287.858734,183.660492 
z"/>
<path fill="#ECEFF1" opacity="1.000000" stroke="none" 
	d="
M243.981857,207.917007 
	C241.355469,206.866165 238.729080,205.815323 235.755219,204.869446 
	C244.154602,199.925888 256.270782,205.404129 259.169769,215.786057 
	C259.652496,217.514847 259.727112,219.357605 260.002258,221.563995 
	C258.225006,223.563675 256.435822,225.147049 254.337463,226.428894 
	C255.031219,217.656464 251.221420,211.840668 243.981857,207.917007 
z"/>
<path fill="#85B8FF" opacity="1.000000" stroke="none" 
	d="
M243.987259,208.393509 
	C251.221420,211.840668 255.031219,217.656464 254.038025,226.570236 
	C251.305847,228.712051 248.563904,230.411026 245.484894,232.221069 
	C244.765213,226.648834 244.345032,220.967667 244.019333,215.281097 
	C243.897324,213.150543 243.995117,211.007416 243.987259,208.393509 
z"/>
<path fill="#ABCFFF" opacity="1.000000" stroke="none" 
	d="
M203.450653,110.072960 
	C203.018677,106.705406 203.008957,103.312454 202.999847,99.460724 
	C207.695251,98.639328 212.390045,98.276733 217.688263,98.291122 
	C220.027328,99.442543 221.726089,100.319183 223.508942,100.962914 
	C225.324860,101.618584 227.223557,102.045067 228.642365,102.501808 
	C223.932587,102.703903 219.666458,102.976089 215.400314,103.248283 
	C215.420975,103.637718 215.441635,104.027161 215.462296,104.416595 
	C217.064621,105.504143 218.666962,106.591690 220.269287,107.679245 
	C214.803833,108.468681 209.338364,109.258125 203.450653,110.072960 
z"/>
<path fill="#0696FD" opacity="1.000000" stroke="none" 
	d="
M220.607147,107.782150 
	C218.666962,106.591690 217.064621,105.504143 215.462296,104.416595 
	C215.441635,104.027161 215.420975,103.637718 215.400314,103.248283 
	C219.666458,102.976089 223.932587,102.703903 228.878113,102.670273 
	C231.115570,103.615524 232.673599,104.322212 234.231644,105.028900 
	C231.776993,107.525192 232.342834,109.624298 235.011841,111.540291 
	C236.708954,112.758598 238.321823,114.094276 239.972473,115.377312 
	C239.713318,115.854431 239.454147,116.331543 239.194992,116.808662 
	C233.111664,113.834129 227.028320,110.859596 220.607147,107.782150 
z"/>
<path fill="#CFE3FF" opacity="1.000000" stroke="none" 
	d="
M185.973541,92.407211 
	C186.036163,94.171867 186.019669,95.623466 185.994431,97.502945 
	C177.405609,93.556816 169.669296,88.182800 164.271790,79.943550 
	C163.477066,78.730408 162.256470,77.796227 161.170654,76.436890 
	C161.970337,76.178131 163.062332,75.886009 163.659332,76.302834 
	C171.112747,81.506844 178.494354,86.813690 185.973541,92.407211 
z"/>
<path fill="#ABCFFF" opacity="1.000000" stroke="none" 
	d="
M200.021606,124.873032 
	C200.015350,121.563461 200.009109,118.253883 200.005096,114.493332 
	C202.410095,113.733330 204.812866,113.424316 207.708221,113.518921 
	C209.624374,114.522598 211.047913,115.122643 212.478195,115.725525 
	C212.388062,117.256905 212.296722,118.808983 212.210541,120.273216 
	C214.386246,120.924370 216.194626,121.465584 218.002991,122.006805 
	C214.759552,122.526711 211.516113,123.046623 207.593552,123.864632 
	C204.616821,124.399498 202.319199,124.636261 200.021606,124.873032 
z"/>
<path fill="#96C2FF" opacity="1.000000" stroke="none" 
	d="
M237.404114,131.773773 
	C235.831345,125.927971 230.859390,124.256203 225.297150,122.191841 
	C223.876953,121.444878 222.947617,121.211006 222.013214,120.577820 
	C222.405533,118.722855 222.802933,117.267204 223.200348,115.811554 
	C226.681168,117.135162 230.399139,118.047081 233.585297,119.882256 
	C237.980408,122.413757 238.803009,126.736176 237.404114,131.773773 
z"/>
<path fill="#A3CAFF" opacity="1.000000" stroke="none" 
	d="
M222.891724,115.572464 
	C222.802933,117.267204 222.405533,118.722855 221.790283,120.690552 
	C221.291565,121.404175 221.100632,121.670296 220.999634,122.000946 
	C220.249084,122.040817 219.498535,122.080688 218.375488,122.063675 
	C216.194626,121.465584 214.386246,120.924370 212.210541,120.273216 
	C212.296722,118.808983 212.388062,117.256905 212.478195,115.725525 
	C211.047913,115.122643 209.624374,114.522598 208.121857,113.585930 
	C212.889633,113.944000 217.736359,114.638695 222.891724,115.572464 
z"/>
<path fill="#96C2FF" opacity="1.000000" stroke="none" 
	d="
M234.589920,105.073364 
	C232.673599,104.322212 231.115570,103.615524 229.321762,102.740372 
	C227.223557,102.045067 225.324860,101.618584 223.508942,100.962914 
	C221.726089,100.319183 220.027328,99.442543 218.134094,98.316994 
	C228.745453,97.787727 233.083878,99.123825 238.735260,104.634140 
	C237.260681,104.822479 236.104431,104.970154 234.589920,105.073364 
z"/>
<path fill="#9CC6FF" opacity="1.000000" stroke="none" 
	d="
M253.129028,135.086578 
	C252.444443,133.081940 252.045502,131.185501 251.309189,129.119186 
	C251.479401,127.087128 251.986984,125.224953 252.507263,123.316185 
	C256.363586,126.147881 256.939789,130.501602 254.395081,136.801300 
	C254.068298,136.265793 253.741486,135.730301 253.129028,135.086578 
z"/>
<path fill="#ABCFFF" opacity="1.000000" stroke="none" 
	d="
M226.398880,81.740059 
	C226.859100,81.868660 227.319321,81.997261 227.893341,82.340500 
	C228.430756,84.383629 228.854355,86.212105 229.513016,89.055176 
	C226.364487,88.218567 223.411819,87.434006 220.204102,86.391159 
	C220.973602,85.537933 221.998138,84.942978 223.575363,84.054520 
	C224.884995,83.087364 225.641937,82.413712 226.398880,81.740059 
z"/>
<path fill="#0696FD" opacity="1.000000" stroke="none" 
	d="
M196.007111,78.003616 
	C198.646759,78.967262 201.238281,79.983162 203.913666,81.323662 
	C202.866791,81.320320 201.736023,80.992363 200.281036,80.816452 
	C199.956802,80.968498 199.996414,80.991692 199.988953,80.651962 
	C199.308289,80.194504 198.635071,80.076767 197.961868,79.959038 
	C197.961868,79.959038 198.003082,79.988251 197.966858,79.696426 
	C197.242157,78.990616 196.553650,78.576622 195.865158,78.162628 
	C195.865158,78.162628 195.958954,78.055870 196.007111,78.003616 
z"/>
<path fill="#A3CAFF" opacity="1.000000" stroke="none" 
	d="
M204.748779,241.998810 
	C206.188568,242.160660 207.378983,242.323166 208.799271,242.767731 
	C207.496231,243.242188 205.963318,243.434586 204.200317,243.116089 
	C203.980392,242.403671 203.990509,242.202133 204.000610,242.000610 
	C204.000610,242.000610 204.499390,241.999451 204.748779,241.998810 
z"/>
<path fill="#ABCFFF" opacity="1.000000" stroke="none" 
	d="
M203.607025,241.999695 
	C203.990509,242.202133 203.980392,242.403671 203.934708,242.907913 
	C202.517502,243.185623 201.135849,243.160614 199.333008,243.121475 
	C200.345703,242.737823 201.779572,242.368301 203.607025,241.999695 
z"/>
<path fill="#0577FB" opacity="1.000000" stroke="none" 
	d="
M291.405396,169.901794 
	C291.299866,168.812775 291.533875,167.524551 292.122253,166.023361 
	C292.232727,167.107803 291.988831,168.405197 291.405396,169.901794 
z"/>
<path fill="#0577FB" opacity="1.000000" stroke="none" 
	d="
M139.618500,81.746445 
	C139.695724,81.969971 139.500717,82.321999 139.005707,82.763390 
	C138.919235,82.526817 139.132767,82.200874 139.618500,81.746445 
z"/>
<path fill="#025EF9" opacity="1.000000" stroke="none" 
	d="
M272.340210,210.138809 
	C272.212158,209.946442 272.335754,209.633820 272.665710,209.169373 
	C272.778656,209.351227 272.685242,209.684891 272.340210,210.138809 
z"/>
<path fill="#FFFFFF" opacity="1.000000" stroke="none" 
	d="
M226.087433,81.492065 
	C225.641937,82.413712 224.884995,83.087364 223.817261,83.782806 
	C223.195908,82.005295 222.403473,79.778908 226.087433,81.492065 
z"/>
<path fill="#0354F8" opacity="1.000000" stroke="none" 
	d="
M199.053894,195.098358 
	C197.261810,196.648010 195.469727,198.197662 193.009506,199.814941 
	C191.787323,198.535141 191.233292,197.187714 190.697861,195.844604 
	C190.716461,195.848923 190.707123,195.880554 191.018768,195.767548 
	C191.516998,195.049561 191.703583,194.444580 191.905029,193.886719 
	C191.919907,193.933823 191.821136,193.931244 192.088531,193.813202 
	C192.463959,193.338013 192.571991,192.980850 192.701141,192.708023 
	C192.722229,192.792358 192.560654,192.728165 192.898071,192.674637 
	C193.466675,192.018921 193.697861,191.416718 193.694122,190.528564 
	C185.595459,188.012985 177.731705,185.783386 169.826874,183.265778 
	C169.199890,182.927277 168.613998,182.876816 167.695297,182.882324 
	C166.914841,182.982635 166.467178,183.026962 165.901978,182.897827 
	C165.647110,182.712906 165.509781,182.701462 165.372452,182.690018 
	C165.445938,182.948898 165.519424,183.207764 165.527023,183.469910 
	C165.461136,183.473190 165.397705,183.357498 165.083237,183.366577 
	C164.547791,183.712112 164.326828,184.048599 164.025192,184.579529 
	C163.728485,184.982040 163.470886,185.075165 162.815567,185.063293 
	C161.770081,185.860809 161.080750,186.648331 160.359619,187.454254 
	C160.327835,187.472672 160.354340,187.541199 159.981018,187.327988 
	C158.933273,185.966492 158.258850,184.818207 157.682953,183.804031 
	C157.781494,183.938141 157.542648,183.706345 157.887085,183.659241 
	C158.463654,182.999451 158.695770,182.386765 159.010345,181.478226 
	C159.183609,180.029083 159.813599,178.322510 159.283722,177.806122 
	C152.216141,170.918381 150.283249,162.439148 151.159515,152.999451 
	C151.854034,157.728241 155.102936,159.920975 159.037003,162.160965 
	C175.116852,171.316589 190.949661,180.905212 206.941864,190.216873 
	C208.668625,191.222290 210.839600,191.464783 212.497864,192.444946 
	C207.533035,191.970108 202.823425,190.813492 199.053894,195.098358 
z"/>
<path fill="#E5F0FF" opacity="1.000000" stroke="none" 
	d="
M156.565811,134.522873 
	C155.216873,135.503967 153.867950,136.485062 151.977509,137.633087 
	C151.172104,138.076706 150.908203,138.353363 150.644302,138.630035 
	C150.644302,138.630035 150.733032,138.555054 150.451019,138.640930 
	C149.874573,138.886063 149.682343,139.126862 149.592270,139.449188 
	C149.592270,139.449188 149.478058,139.394974 149.414856,139.400253 
	C148.757416,139.889587 148.163162,140.373642 147.070938,140.639038 
	C146.048660,138.642670 145.204834,136.890793 145.058472,135.082474 
	C144.571487,129.066101 144.334976,123.029457 144.154388,116.700066 
	C148.210587,113.608917 152.114838,110.818298 156.022247,108.447693 
	C156.350266,113.597771 156.626755,118.331818 157.016281,123.056549 
	C157.296478,126.455246 157.727509,129.841507 157.950104,133.441132 
	C157.427628,133.952484 157.046326,134.255981 156.638092,134.556091 
	C156.611176,134.552673 156.565811,134.522873 156.565811,134.522873 
z"/>
<path fill="#F5F9FF" opacity="1.000000" stroke="none" 
	d="
M199.235901,195.354828 
	C202.823425,190.813492 207.533035,191.970108 212.593582,192.795776 
	C219.453751,194.163010 225.911819,195.561722 232.366852,196.974380 
	C232.491989,197.001755 232.685333,197.213730 232.667450,197.304123 
	C232.616470,197.561874 232.472702,197.801285 231.829071,198.393829 
	C230.819534,199.145538 230.346375,199.551331 229.873215,199.957123 
	C229.553360,199.936752 229.283859,200.043533 228.715347,200.596741 
	C228.146942,201.221970 227.927917,201.527878 227.708893,201.833786 
	C227.708893,201.833786 227.830261,201.824738 227.484955,201.914978 
	C222.776474,206.504761 219.123810,211.369614 218.913635,218.004425 
	C218.913635,218.004425 218.988693,217.992249 218.670990,217.855682 
	C218.253647,218.124527 218.154022,218.529938 218.054382,218.935349 
	C218.172607,215.046600 217.976608,211.112839 218.525085,207.285751 
	C218.862396,204.932068 220.337555,202.741470 221.524979,199.953705 
	C219.672562,199.590576 217.819458,199.227310 215.594971,198.849335 
	C211.433746,198.188721 207.643906,197.542816 203.413696,196.878204 
	C201.788177,196.443405 200.603043,196.027344 199.235901,195.354828 
z"/>
<path fill="#F0F6FF" opacity="1.000000" stroke="none" 
	d="
M144.002441,117.000587 
	C144.334976,123.029457 144.571487,129.066101 145.058472,135.082474 
	C145.204834,136.890793 146.048660,138.642670 146.801910,140.742203 
	C146.721832,141.492401 146.412796,141.920792 145.766602,142.725845 
	C145.113342,143.566635 144.797211,144.030746 144.481079,144.494843 
	C144.481079,144.494843 144.617554,144.543579 144.334320,144.689575 
	C143.905853,145.132690 143.760590,145.429794 143.615341,145.726898 
	C143.615341,145.726898 143.752289,145.792542 143.486099,145.840958 
	C143.070374,146.223114 142.920837,146.556870 142.771301,146.890610 
	C142.771301,146.890610 142.879044,146.902466 142.596161,146.992798 
	C142.056091,147.619141 141.798904,148.155121 141.541733,148.691116 
	C141.541733,148.691116 141.853088,148.850555 141.501617,148.893692 
	C140.816071,149.312057 140.481995,149.687302 139.787842,149.871582 
	C138.951843,148.020981 138.124832,146.373764 138.065536,144.699371 
	C137.884399,139.583984 138.875381,134.261353 137.781006,129.385025 
	C136.341278,122.969841 139.841492,120.061378 144.002441,117.000587 
z"/>
<path fill="#F5F9FF" opacity="1.000000" stroke="none" 
	d="
M151.035019,152.677399 
	C150.283249,162.439148 152.216141,170.918381 159.283722,177.806122 
	C159.813599,178.322510 159.183609,180.029083 158.744247,181.633270 
	C158.111343,182.624893 157.826996,183.165619 157.542664,183.706345 
	C157.542648,183.706345 157.781494,183.938141 157.423859,184.009277 
	C155.847610,186.437927 154.628998,188.795456 153.071152,190.933578 
	C152.911118,188.015869 153.235580,185.316666 153.219238,182.619537 
	C153.208069,180.774399 153.019928,178.823257 152.393234,177.108704 
	C150.389542,171.626816 148.238739,166.192307 145.918182,160.837677 
	C145.415634,159.678070 143.968307,158.927902 143.002228,157.756958 
	C143.048309,157.524780 143.154922,157.063522 143.154938,157.063538 
	C144.050140,156.300095 144.945343,155.536652 146.238617,154.391006 
	C146.899170,153.712341 147.161667,153.415878 147.424164,153.119415 
	C148.586288,152.864716 149.748398,152.610016 151.035019,152.677399 
z"/>
<path fill="#0354F8" opacity="1.000000" stroke="none" 
	d="
M219.233749,217.895233 
	C219.123810,211.369614 222.776474,206.504761 227.447327,201.867157 
	C227.975037,206.021347 230.790329,205.085983 233.679031,204.703934 
	C231.401184,206.683517 228.857544,208.497284 226.141510,210.592819 
	C223.830688,213.178391 221.692276,215.482224 219.233749,217.895233 
z"/>
<path fill="#0354F8" opacity="1.000000" stroke="none" 
	d="
M142.826569,156.922440 
	C143.154922,157.063522 143.048309,157.524780 142.718353,157.889709 
	C141.569733,159.447693 140.751083,160.640747 139.643433,162.022873 
	C138.379349,163.586868 137.404266,164.961777 136.429199,166.336700 
	C136.077042,166.198517 135.724869,166.060349 135.372711,165.922180 
	C136.701599,161.442001 138.030487,156.961838 139.520416,152.611816 
	C139.681458,152.741959 140.003891,153.001801 140.003891,153.001801 
	C140.835342,154.261658 141.666794,155.521500 142.826569,156.922440 
z"/>
<path fill="#0354F8" opacity="1.000000" stroke="none" 
	d="
M140.147903,150.062531 
	C140.481995,149.687302 140.816071,149.312057 141.360550,148.790314 
	C141.235840,149.959671 140.900742,151.275574 140.284775,152.796631 
	C140.003891,153.001801 139.681458,152.741959 139.632721,152.312180 
	C139.771957,151.275772 139.959930,150.669159 140.147903,150.062531 
z"/>
<path fill="#0354F8" opacity="1.000000" stroke="none" 
	d="
M230.222229,199.929520 
	C230.346375,199.551331 230.819534,199.145538 231.590088,198.616150 
	C231.448730,198.962341 231.009979,199.432129 230.222229,199.929520 
z"/>
<path fill="#0354F8" opacity="1.000000" stroke="none" 
	d="
M141.882584,148.653595 
	C141.798904,148.155121 142.056091,147.619141 142.577820,146.941803 
	C142.636063,147.405655 142.429749,148.010864 141.882584,148.653595 
z"/>
<path fill="#0354F8" opacity="1.000000" stroke="none" 
	d="
M144.818024,144.536865 
	C144.797211,144.030746 145.113342,143.566635 145.688919,142.982956 
	C145.683899,143.435226 145.419434,144.007065 144.818024,144.536865 
z"/>
<path fill="#0354F8" opacity="1.000000" stroke="none" 
	d="
M228.000595,201.759796 
	C227.927917,201.527878 228.146942,201.221970 228.634491,200.804977 
	C228.699448,201.024536 228.495880,201.355164 228.000595,201.759796 
z"/>
<path fill="#0354F8" opacity="1.000000" stroke="none" 
	d="
M143.918198,145.688599 
	C143.760590,145.429794 143.905853,145.132690 144.263840,144.706329 
	C144.391403,144.934830 144.306229,145.292572 143.918198,145.688599 
z"/>
<path fill="#0354F8" opacity="1.000000" stroke="none" 
	d="
M143.047791,146.792511 
	C142.920837,146.556870 143.070374,146.223114 143.469513,145.766861 
	C143.587509,145.994370 143.455902,146.344391 143.047791,146.792511 
z"/>
<path fill="#0354F8" opacity="1.000000" stroke="none" 
	d="
M147.120193,153.193253 
	C147.161667,153.415878 146.899170,153.712341 146.352722,154.116623 
	C146.317932,153.905319 146.567078,153.586212 147.120193,153.193253 
z"/>
<path fill="#026AFA" opacity="1.000000" stroke="none" 
	d="
M212.377670,168.172333 
	C206.427994,165.361374 200.316055,162.845001 194.563538,159.676132 
	C183.699463,153.691528 172.976776,147.440079 162.352432,141.038788 
	C160.151688,139.712814 158.635513,137.250671 156.684814,134.917511 
	C156.565811,134.522873 156.611176,134.552673 156.953125,134.677338 
	C158.182892,134.193680 159.070694,133.585358 160.134247,132.761261 
	C161.163040,132.590942 162.016083,132.636383 162.928162,133.052826 
	C164.126099,134.520065 165.102737,135.894196 166.429398,136.668777 
	C177.437653,143.096024 188.476379,149.473083 199.578094,155.737381 
	C205.287918,158.959198 211.144821,161.920319 216.856461,165.326111 
	C215.311005,166.492737 213.844345,167.332535 212.377670,168.172333 
z"/>
<path fill="#9CC6FF" opacity="1.000000" stroke="none" 
	d="
M212.268402,168.378662 
	C213.844345,167.332535 215.311005,166.492737 216.978088,165.035538 
	C217.231186,164.001770 217.283859,163.585419 217.553726,162.932312 
	C217.466095,161.480042 217.161270,160.264511 216.829697,158.763947 
	C216.499817,157.786240 216.196701,157.093552 215.927094,155.952072 
	C217.001389,151.311371 218.042206,147.119461 219.227798,143.269562 
	C221.464279,150.389343 223.308792,157.343140 231.365707,160.233994 
	C232.834808,161.116592 234.028900,161.834641 235.375916,162.644653 
	C233.933624,163.305511 232.628143,163.903687 230.942261,164.676178 
	C232.836212,165.530014 234.420746,166.244370 235.821503,167.267212 
	C228.050171,172.331726 220.116104,171.529663 212.077103,169.044647 
	C212.077103,169.044647 212.159134,168.584976 212.268402,168.378662 
z"/>
<path fill="#ECEFF1" opacity="1.000000" stroke="none" 
	d="
M211.984146,169.415192 
	C220.116104,171.529663 228.050171,172.331726 236.173462,167.206253 
	C238.451050,167.166779 240.192871,167.496750 241.934677,167.826721 
	C238.761505,169.574326 235.588333,171.321945 232.103607,173.201691 
	C224.743805,174.476639 217.856903,174.714600 211.984146,169.415192 
z"/>
<path fill="#025EF9" opacity="1.000000" stroke="none" 
	d="
M150.936951,138.654068 
	C150.908203,138.353363 151.172104,138.076706 151.730591,137.835602 
	C151.759979,138.140137 151.494797,138.409119 150.936951,138.654068 
z"/>
<path fill="#025EF9" opacity="1.000000" stroke="none" 
	d="
M149.888214,139.521729 
	C149.682343,139.126862 149.874573,138.886063 150.393906,138.651550 
	C150.473938,138.915619 150.329056,139.254929 149.888214,139.521729 
z"/>
<path fill="#F5F9FF" opacity="1.000000" stroke="none" 
	d="
M139.787842,149.871582 
	C139.959930,150.669159 139.771957,151.275772 139.471680,152.182037 
	C138.030487,156.961838 136.701599,161.442001 135.372711,165.922180 
	C135.724869,166.060349 136.077042,166.198517 136.429199,166.336700 
	C137.404266,164.961777 138.379349,163.586868 139.800232,162.387665 
	C140.827942,164.260971 141.935898,165.967590 141.906921,167.654678 
	C141.708679,179.198395 141.271896,190.737991 140.911987,202.278931 
	C137.924576,198.916122 134.937149,195.553314 131.717712,191.964325 
	C131.485703,191.738159 131.450134,191.761627 131.344055,191.468719 
	C130.843048,190.755157 130.448135,190.334518 130.053223,189.913879 
	C130.053223,189.913879 130.018646,189.985062 129.994873,189.623993 
	C128.923447,187.183502 127.875778,185.104080 126.828110,183.024673 
	C126.700211,182.482010 126.572311,181.939331 126.209579,180.901978 
	C125.662628,179.916672 125.350494,179.426086 125.038361,178.935486 
	C125.038361,178.935486 125.000015,178.990723 124.995712,178.737686 
	C124.991417,178.484650 124.846939,178.013290 124.846939,178.013290 
	C123.843178,169.274307 122.839401,160.535324 121.784393,151.369904 
	C122.312027,146.972900 122.890907,143.002350 123.547661,138.615936 
	C125.476929,133.862579 127.328331,129.525070 129.321899,124.873657 
	C129.464050,124.559723 129.455490,124.447853 129.646667,124.273270 
	C129.954300,123.757835 130.070755,123.417000 130.187225,123.076157 
	C130.187225,123.076157 130.088745,123.071075 130.367355,122.968613 
	C130.896988,122.320206 131.148010,121.774246 131.399033,121.228294 
	C131.399033,121.228294 131.228378,121.158691 131.494293,121.130188 
	C131.924271,120.760986 132.088364,120.420296 132.252441,120.079605 
	C133.510513,118.619453 134.768585,117.159309 136.161194,115.400375 
	C140.900574,111.462982 145.505417,107.824364 150.429977,103.933128 
	C145.416779,103.933128 140.397858,103.933128 134.206100,103.933128 
	C135.838074,103.095589 136.273605,102.872078 136.909119,102.342743 
	C137.417679,102.049843 137.688873,101.955414 138.257355,101.461472 
	C138.718353,101.054703 138.844666,100.940094 138.970993,100.825470 
	C143.734970,98.565849 148.498947,96.306221 153.631592,93.959831 
	C158.452789,92.563835 162.215485,93.878006 166.115707,96.228539 
	C169.768494,98.429962 173.982300,99.700478 177.859787,101.629745 
	C177.510727,101.907295 177.251083,101.935768 176.569656,101.972733 
	C173.438309,102.336517 170.728775,102.691811 167.681061,103.172424 
	C163.568283,104.874382 159.793701,106.451035 156.019104,108.027679 
	C152.114838,110.818298 148.210587,113.608917 144.154388,116.700066 
	C139.841492,120.061378 136.341278,122.969841 137.781006,129.385025 
	C138.875381,134.261353 137.884399,139.583984 138.065536,144.699371 
	C138.124832,146.373764 138.951843,148.020981 139.787842,149.871582 
z"/>
<path fill="#EAF3FF" opacity="1.000000" stroke="none" 
	d="
M141.063187,202.560379 
	C141.271896,190.737991 141.708679,179.198395 141.906921,167.654678 
	C141.935898,165.967590 140.827942,164.260971 140.089249,162.198608 
	C140.751083,160.640747 141.569733,159.447693 142.672272,158.121887 
	C143.968307,158.927902 145.415634,159.678070 145.918182,160.837677 
	C148.238739,166.192307 150.389542,171.626816 152.393234,177.108704 
	C153.019928,178.823257 153.208069,180.774399 153.219238,182.619537 
	C153.235580,185.316666 152.911118,188.015869 153.017487,191.280060 
	C154.661194,192.645782 149.829773,194.795837 154.241669,195.192795 
	C150.418442,198.997803 149.445587,203.684769 149.780487,208.830856 
	C149.430328,208.557770 149.080170,208.284698 148.250565,207.557556 
	C147.465897,207.085892 147.160660,207.068314 146.855423,207.050751 
	C144.975082,205.647766 143.094742,204.244797 141.063187,202.560379 
z"/>
<path fill="#CAE0FF" opacity="1.000000" stroke="none" 
	d="
M187.988907,223.839783 
	C182.318039,222.316193 176.647171,220.792603 170.930588,218.680771 
	C171.588760,216.106476 172.902893,214.115723 172.887650,212.135223 
	C172.830902,204.771561 172.336990,197.411285 172.355347,190.189026 
	C175.524948,191.174820 178.297409,192.374588 181.180817,192.774490 
	C184.467239,193.230270 185.153687,194.925812 185.030243,197.818771 
	C184.872253,201.520859 185.006149,205.235397 184.961609,209.354095 
	C184.320465,213.561584 183.731979,217.359543 183.212296,220.713348 
	C185.041199,221.910431 186.515060,222.875122 187.988907,223.839783 
z"/>
<path fill="#D9E9FF" opacity="1.000000" stroke="none" 
	d="
M149.935760,209.016998 
	C149.445587,203.684769 150.418442,198.997803 154.410492,194.908630 
	C156.335068,192.124802 158.344696,189.832993 160.354340,187.541199 
	C160.354340,187.541199 160.327835,187.472672 160.639282,187.349731 
	C161.612350,186.772476 162.274002,186.318161 163.053345,186.113052 
	C163.452362,186.592239 163.733673,186.822235 164.012222,187.477875 
	C164.981842,197.212341 166.838806,206.564362 162.655609,215.621353 
	C158.467422,213.481949 154.279236,211.342545 149.935760,209.016998 
z"/>
<path fill="#CFE3FF" opacity="1.000000" stroke="none" 
	d="
M162.682495,215.608536 
	C166.838806,206.564362 164.981842,197.212341 164.370010,187.501907 
	C167.156113,188.083420 169.581665,189.066574 172.007217,190.049728 
	C172.336990,197.411285 172.830902,204.771561 172.887650,212.135223 
	C172.902893,214.115723 171.588760,216.106476 170.629303,218.505463 
	C170.373749,218.918381 170.263062,218.907043 170.085785,218.487061 
	C167.851334,217.447159 165.794174,216.827240 163.737000,216.207321 
	C163.737000,216.207321 163.852417,216.137512 163.775604,215.927368 
	C163.360397,215.692642 163.021988,215.668060 162.683578,215.643463 
	C162.683578,215.643463 162.709366,215.595718 162.682495,215.608536 
z"/>
<path fill="#C0DAFF" opacity="1.000000" stroke="none" 
	d="
M188.306824,223.973770 
	C186.515060,222.875122 185.041199,221.910431 183.212296,220.713348 
	C183.731979,217.359543 184.320465,213.561584 185.267212,209.331451 
	C186.073593,208.322174 186.521713,207.745056 187.283585,207.045578 
	C189.009216,205.261246 190.421097,203.599258 191.832977,201.937286 
	C195.735565,209.469086 194.029739,217.290680 193.011902,225.492493 
	C191.538345,225.308655 190.081543,224.708206 188.306824,223.973770 
z"/>
<path fill="#D9E9FF" opacity="1.000000" stroke="none" 
	d="
M163.844757,216.544312 
	C165.794174,216.827240 167.851334,217.447159 170.032669,218.470505 
	C168.088730,218.209717 166.020630,217.545502 163.844757,216.544312 
z"/>
<path fill="#F5F9FF" opacity="1.000000" stroke="none" 
	d="
M147.007004,207.346283 
	C147.160660,207.068314 147.465897,207.085892 148.219147,207.214752 
	C148.164291,207.431290 147.661438,207.536545 147.007004,207.346283 
z"/>
<path fill="#D9E9FF" opacity="1.000000" stroke="none" 
	d="
M162.811462,215.843872 
	C163.021988,215.668060 163.360397,215.692642 163.782364,215.994476 
	C163.536118,216.280960 163.227249,216.205139 162.811462,215.843872 
z"/>
<path fill="#0577FB" opacity="1.000000" stroke="none" 
	d="
M241.954788,168.226501 
	C240.192871,167.496750 238.451050,167.166779 236.357269,166.897766 
	C234.420746,166.244370 232.836212,165.530014 230.942261,164.676178 
	C232.628143,163.903687 233.933624,163.305511 235.375916,162.644653 
	C234.028900,161.834641 232.834808,161.116592 231.302979,159.883209 
	C224.049026,151.477753 221.412109,142.364883 223.145981,132.003098 
	C223.589951,135.011246 224.033936,138.019394 224.436737,140.748550 
	C226.591888,142.007538 228.678284,143.226364 231.043274,145.110077 
	C234.017059,150.729614 235.620605,156.628281 242.479065,158.530777 
	C247.568680,159.101440 252.314728,159.421173 257.448975,159.774261 
	C260.895172,159.855774 263.953125,159.903976 267.287140,160.158142 
	C275.282745,166.119827 274.616852,173.549286 265.470276,178.837036 
	C262.978729,178.763519 260.925354,178.679504 258.675140,178.350555 
	C256.545135,174.899109 254.611969,171.692596 252.750214,168.604584 
	C252.526382,169.924606 252.180161,171.966385 251.833939,174.008148 
	C246.235703,175.503174 242.793762,173.624283 241.954788,168.226501 
z"/>
<path fill="#F0F6FF" opacity="1.000000" stroke="none" 
	d="
M223.101700,131.585785 
	C221.412109,142.364883 224.049026,151.477753 231.027985,159.718658 
	C223.308792,157.343140 221.464279,150.389343 219.226471,142.900208 
	C219.017929,141.449020 218.955505,140.709167 218.912079,139.647949 
	C218.898178,138.899384 218.865250,138.472183 218.872528,137.657837 
	C218.869354,136.495422 218.826004,135.720154 218.827698,134.631012 
	C218.843216,133.896576 218.813690,133.476013 218.830658,132.706238 
	C218.853271,131.888855 218.829422,131.420639 218.682404,130.691544 
	C218.012253,130.255524 217.465286,130.080414 216.600586,129.720642 
	C213.508606,128.986450 210.734329,128.436920 207.960068,127.887383 
	C204.602478,127.584778 201.244904,127.282166 197.194168,126.982788 
	C196.501022,126.986023 196.007126,127.014069 196.007126,127.014069 
	C197.124680,126.331917 198.242218,125.649765 199.690674,124.920319 
	C202.319199,124.636261 204.616821,124.399498 207.301971,124.156387 
	C211.743301,124.854027 215.809235,125.495911 219.846588,126.284126 
	C222.475708,126.797417 223.920761,128.270233 223.101700,131.585785 
z"/>
<path fill="#D9E9FF" opacity="1.000000" stroke="none" 
	d="
M267.011108,159.952164 
	C263.953125,159.903976 260.895172,159.855774 257.528381,159.431870 
	C258.629944,158.461502 260.040253,157.866852 262.449188,156.851151 
	C260.883209,155.320328 259.581635,154.047974 258.280060,152.775604 
	C260.522888,150.897308 262.765747,149.019012 265.700012,147.046570 
	C267.982025,147.654053 269.572662,148.355637 271.163269,149.057220 
	C271.170502,149.778915 271.177734,150.500610 270.830872,151.734467 
	C269.321564,154.815140 268.166321,157.383652 267.011108,159.952164 
z"/>
<path fill="#B5D4FF" opacity="1.000000" stroke="none" 
	d="
M257.946259,152.852921 
	C259.581635,154.047974 260.883209,155.320328 262.449188,156.851151 
	C260.040253,157.866852 258.629944,158.461502 257.140198,159.398529 
	C252.314728,159.421173 247.568680,159.101440 242.911072,158.458740 
	C244.347656,157.158539 245.695801,156.181290 247.043945,155.204041 
	C250.566788,154.446091 254.089615,153.688156 257.946259,152.852921 
z"/>
<path fill="#96C2FF" opacity="1.000000" stroke="none" 
	d="
M246.684082,155.106018 
	C245.695801,156.181290 244.347656,157.158539 242.567505,158.207825 
	C235.620605,156.628281 234.017059,150.729614 231.201065,145.461273 
	C233.073715,146.968399 234.977631,148.902252 237.088943,150.574219 
	C238.771210,151.906448 240.706543,152.919144 242.827393,154.498169 
	C243.449158,154.896286 243.773041,154.869904 244.096939,154.843506 
	C244.839355,154.898331 245.581787,154.953156 246.684082,155.106018 
z"/>
<path fill="#E5F0FF" opacity="1.000000" stroke="none" 
	d="
M271.360168,148.853668 
	C269.572662,148.355637 267.982025,147.654053 265.995483,146.917664 
	C266.338470,146.120926 267.077362,145.358948 267.973206,144.319000 
	C268.441345,144.046646 268.703552,143.936096 269.270264,143.397644 
	C269.847778,142.795166 270.071838,142.504456 270.295868,142.213745 
	C270.295868,142.213730 270.212830,142.348862 270.479675,142.335129 
	C270.746552,142.321396 271.005524,142.017471 271.005524,142.017471 
	C271.175537,142.019272 271.345581,142.021072 271.943176,142.274261 
	C275.707916,143.236893 272.428497,145.046814 272.984161,146.219925 
	C272.508453,147.029999 272.032776,147.840057 271.360168,148.853668 
z"/>
<path fill="#ABCFFF" opacity="1.000000" stroke="none" 
	d="
M221.418625,122.070206 
	C221.100632,121.670296 221.291565,121.404175 221.795380,121.089867 
	C222.947617,121.211006 223.876953,121.444878 225.040771,121.975494 
	C224.129379,122.227974 222.983505,122.183723 221.418625,122.070206 
z"/>
<path fill="#B5D4FF" opacity="1.000000" stroke="none" 
	d="
M243.844604,154.719208 
	C243.773041,154.869904 243.449158,154.896286 243.089386,154.677750 
	C243.233078,154.486862 243.412674,154.540878 243.844604,154.719208 
z"/>
<path fill="#CAE0FF" opacity="1.000000" stroke="none" 
	d="
M176.991455,101.964241 
	C177.251083,101.935768 177.510727,101.907295 178.162811,101.854401 
	C182.764786,102.500031 186.974274,103.170082 191.592941,103.914375 
	C192.008041,104.160072 192.013992,104.331535 191.589523,104.755112 
	C189.562897,105.093391 187.966705,105.179550 187.240112,105.218773 
	C186.805679,113.231682 186.405869,120.606049 186.002197,128.253937 
	C185.997742,128.709839 185.997162,128.892212 185.595398,129.116516 
	C184.126770,129.051880 183.059311,128.945328 181.901337,128.472900 
	C180.252914,127.412567 178.695023,126.718102 176.991455,125.958702 
	C176.991455,117.884102 176.991455,109.924171 176.991455,101.964241 
z"/>
<path fill="#CAE0FF" opacity="1.000000" stroke="none" 
	d="
M197.747833,103.994522 
	C197.728088,104.144524 197.463882,104.266052 197.110672,104.227554 
	C197.021667,104.067535 197.503357,103.966042 197.747833,103.994522 
z"/>
<path fill="#026CFA" opacity="1.000000" stroke="none" 
	d="
M217.336533,163.169052 
	C217.283859,163.585419 217.231186,164.001770 217.056885,164.708710 
	C211.144821,161.920319 205.287918,158.959198 199.578094,155.737381 
	C188.476379,149.473083 177.437653,143.096024 166.429398,136.668777 
	C165.102737,135.894196 164.126099,134.520065 162.975586,132.688034 
	C165.675064,131.031631 168.386169,130.111038 171.505524,129.219070 
	C173.273926,129.219986 174.634079,129.192276 175.997284,129.542908 
	C176.688751,135.437897 181.177063,136.145477 185.298798,136.922119 
	C188.794479,137.580765 192.409317,137.606873 195.971436,137.912872 
	C195.599747,138.000641 195.228043,138.088409 194.089706,138.104584 
	C189.839645,138.033005 186.356232,138.033005 181.559464,138.033005 
	C183.525421,139.161819 184.225494,139.563782 184.925552,139.965744 
	C186.437546,141.298935 187.737411,143.170319 189.500900,143.865387 
	C195.003510,146.034180 200.681458,147.758072 206.930954,149.940247 
	C210.344849,152.284332 213.119232,154.342590 215.893600,156.400864 
	C216.196701,157.093552 216.499817,157.786240 216.585083,159.006989 
	C216.690323,160.746399 217.013428,161.957718 217.336533,163.169052 
z"/>
<path fill="#ABCFFF" opacity="1.000000" stroke="none" 
	d="
M215.927094,155.952072 
	C213.119232,154.342590 210.344849,152.284332 207.281876,150.026123 
	C207.324203,142.833572 207.655136,135.840958 207.973068,128.367874 
	C210.734329,128.436920 213.508606,128.986450 216.755646,129.969452 
	C217.754150,130.586090 218.279846,130.769272 218.805573,130.952438 
	C218.829422,131.420639 218.853271,131.888855 218.561005,132.737366 
	C217.960510,133.424454 217.676163,133.731247 217.391815,134.038055 
	C217.855423,134.340332 218.319046,134.642609 218.782654,134.944885 
	C218.826004,135.720154 218.869354,136.495422 218.593811,137.689941 
	C217.987350,138.429535 217.699753,138.749893 217.412170,139.070251 
	C217.905807,139.369949 218.399429,139.669632 218.893066,139.969330 
	C218.955505,140.709167 219.017929,141.449020 219.081696,142.558197 
	C218.042206,147.119461 217.001389,151.311371 215.927094,155.952072 
z"/>
<path fill="#0577FB" opacity="1.000000" stroke="none" 
	d="
M196.339020,137.941589 
	C192.409317,137.606873 188.794479,137.580765 185.298798,136.922119 
	C181.177063,136.145477 176.688751,135.437897 176.421082,129.470612 
	C178.558487,128.959564 180.275177,128.899170 181.991867,128.838776 
	C183.059311,128.945328 184.126770,129.051880 185.904816,129.233856 
	C187.051224,129.375946 187.487030,129.442627 188.236755,129.661758 
	C189.707962,129.961884 190.865265,130.109558 192.022552,130.257233 
	C195.576721,131.821213 199.130890,133.385208 203.990952,135.523834 
	C200.628387,136.653152 198.667480,137.311722 196.339020,137.941589 
z"/>
<path fill="#C0DAFF" opacity="1.000000" stroke="none" 
	d="
M192.026794,129.812805 
	C190.865265,130.109558 189.707962,129.961884 188.147064,129.331329 
	C187.164307,128.559113 186.585190,128.269775 186.006058,127.980423 
	C186.405869,120.606049 186.805679,113.231682 187.240112,105.218773 
	C187.966705,105.179550 189.562897,105.093391 191.585266,105.012428 
	C192.017960,113.134537 192.024490,121.251450 192.026794,129.812805 
z"/>
<path fill="#0577FB" opacity="1.000000" stroke="none" 
	d="
M185.372253,139.936432 
	C184.225494,139.563782 183.525421,139.161819 181.559464,138.033005 
	C186.356232,138.033005 189.839645,138.033005 193.803528,138.072708 
	C191.462326,138.710648 188.640640,139.308884 185.372253,139.936432 
z"/>
<path fill="#ABCFFF" opacity="1.000000" stroke="none" 
	d="
M196.095398,127.178772 
	C196.007126,127.014069 196.501022,126.986023 196.748016,126.997948 
	C196.724548,127.121071 196.454102,127.232277 196.095398,127.178772 
z"/>
<path fill="#B5D4FF" opacity="1.000000" stroke="none" 
	d="
M251.902222,174.383820 
	C252.180161,171.966385 252.526382,169.924606 252.750214,168.604584 
	C254.611969,171.692596 256.545135,174.899109 258.704712,178.798996 
	C258.418976,180.716354 257.906891,181.940323 257.394836,183.164291 
	C255.586716,180.362686 253.778610,177.561081 251.902222,174.383820 
z"/>
<path fill="#CFE3FF" opacity="1.000000" stroke="none" 
	d="
M257.653015,183.463379 
	C257.906891,181.940323 258.418976,180.716354 258.901489,179.043945 
	C260.925354,178.679504 262.978729,178.763519 265.612976,179.185989 
	C266.862732,181.060440 267.531586,182.596466 268.200439,184.132492 
	C267.720367,184.714325 267.240265,185.296143 266.356262,185.677353 
	C265.646729,185.387680 265.341095,185.298630 265.035492,185.209564 
	C264.860565,185.184280 264.685638,185.158981 264.252838,185.195389 
	C261.967041,184.758881 259.939148,184.260681 257.653015,183.463379 
z"/>
<path fill="#FFFFFF" opacity="1.000000" stroke="none" 
	d="
M195.524628,78.146713 
	C196.553650,78.576622 197.242157,78.990616 197.988861,79.708847 
	C196.498779,79.739548 194.950485,79.466003 193.402191,79.192467 
	C193.423157,78.909279 193.444122,78.626091 193.465088,78.342903 
	C194.038101,78.272202 194.611099,78.201508 195.524628,78.146713 
z"/>
<path fill="#FFFFFF" opacity="1.000000" stroke="none" 
	d="
M197.857483,80.412704 
	C198.635071,80.076767 199.308289,80.194504 200.009125,80.662918 
	C199.275543,80.964523 198.514313,80.915451 197.857483,80.412704 
z"/>
<path fill="#EAF3FF" opacity="1.000000" stroke="none" 
	d="
M273.351685,146.092804 
	C272.428497,145.046814 275.707916,143.236893 272.197571,142.292389 
	C278.101440,139.693680 280.685974,140.914429 282.848511,147.549347 
	C280.159698,145.512894 277.365692,143.747345 273.351685,146.092804 
z"/>
<path fill="#0484FC" opacity="1.000000" stroke="none" 
	d="
M270.890076,141.848419 
	C271.005524,142.017471 270.746552,142.321396 270.553619,142.363907 
	C270.498657,142.164062 270.636658,141.921722 270.890076,141.848419 
z"/>
<path fill="#0484FC" opacity="1.000000" stroke="none" 
	d="
M270.000793,142.269196 
	C270.071838,142.504456 269.847778,142.795166 269.357178,143.196960 
	C269.295624,142.980225 269.500641,142.652435 270.000793,142.269196 
z"/>
<path fill="#0336F6" opacity="1.000000" stroke="none" 
	d="
M126.610817,183.247589 
	C127.875778,185.104080 128.923447,187.183502 130.033173,189.613983 
	C128.861313,187.800217 127.627419,185.635361 126.610817,183.247589 
z"/>
<path fill="#0336F6" opacity="1.000000" stroke="none" 
	d="
M125.029510,179.217682 
	C125.350494,179.426086 125.662628,179.916672 125.982742,180.719238 
	C125.667381,180.520752 125.344025,180.010300 125.029510,179.217682 
z"/>
<path fill="#0336F6" opacity="1.000000" stroke="none" 
	d="
M130.069016,190.243622 
	C130.448135,190.334518 130.843048,190.755157 131.323486,191.463791 
	C130.967621,191.358978 130.526215,190.966187 130.069016,190.243622 
z"/>
<path fill="#0336F6" opacity="1.000000" stroke="none" 
	d="
M124.701935,178.126144 
	C124.846939,178.013290 124.991417,178.484650 125.028038,178.728455 
	C124.895416,178.727829 124.726173,178.483414 124.701935,178.126144 
z"/>
<path fill="#0441F7" opacity="1.000000" stroke="none" 
	d="
M191.980804,201.689606 
	C190.421097,203.599258 189.009216,205.261246 186.981567,206.875336 
	C187.803619,203.165070 189.241440,199.502686 190.679260,195.840286 
	C191.233292,197.187714 191.787323,198.535141 192.717896,199.957596 
	C192.772507,200.502411 192.450562,200.972183 191.980804,201.689606 
z"/>
<path fill="#E5F0FF" opacity="1.000000" stroke="none" 
	d="
M268.548767,184.107452 
	C267.531586,182.596466 266.862732,181.060440 266.051117,179.175476 
	C274.616852,173.549286 275.282745,166.119827 267.287140,160.158142 
	C268.166321,157.383652 269.321564,154.815140 270.801880,152.094421 
	C273.457733,155.760910 275.788452,159.579605 278.246948,163.686096 
	C279.465393,169.273468 279.339478,174.391632 276.015228,179.384308 
	C273.568298,181.173599 271.232727,182.628006 268.548767,184.107452 
z"/>
<path fill="#0354F8" opacity="1.000000" stroke="none" 
	d="
M218.261627,218.951340 
	C218.154022,218.529938 218.253647,218.124527 218.662781,217.818542 
	C218.981140,218.092148 218.990005,218.266312 218.941544,218.695648 
	C218.884232,218.950836 218.468857,218.967331 218.261627,218.951340 
z"/>
<path fill="#0371FB" opacity="1.000000" stroke="none" 
	d="
M138.825043,100.696404 
	C138.844666,100.940094 138.718353,101.054703 138.354523,101.264557 
	C138.304367,101.095634 138.491730,100.831482 138.825043,100.696404 
z"/>
<path fill="#025EF9" opacity="1.000000" stroke="none" 
	d="
M131.068924,121.296028 
	C131.148010,121.774246 130.896988,122.320206 130.382523,123.015533 
	C130.325653,122.564522 130.532227,121.964142 131.068924,121.296028 
z"/>
<path fill="#025EF9" opacity="1.000000" stroke="none" 
	d="
M131.975098,120.186195 
	C132.088364,120.420296 131.924271,120.760986 131.500168,121.222153 
	C131.392685,120.992668 131.545212,120.642731 131.975098,120.186195 
z"/>
<path fill="#025EF9" opacity="1.000000" stroke="none" 
	d="
M129.919510,123.191330 
	C130.070755,123.417000 129.954300,123.757835 129.603622,124.237259 
	C129.463547,124.019394 129.557678,123.662949 129.919510,123.191330 
z"/>
<path fill="#026AFA" opacity="1.000000" stroke="none" 
	d="
M265.175415,185.396790 
	C265.341095,185.298630 265.646729,185.387680 266.057739,185.712463 
	C265.840729,185.919464 265.558105,185.798065 265.175415,185.396790 
z"/>
<path fill="#F5F9FF" opacity="1.000000" stroke="none" 
	d="
M190.697876,195.844604 
	C189.241440,199.502686 187.803619,203.165070 186.667816,206.997696 
	C186.521713,207.745056 186.073593,208.322174 185.319870,208.921936 
	C185.006149,205.235397 184.872253,201.520859 185.030243,197.818771 
	C185.153687,194.925812 184.467239,193.230270 181.180817,192.774490 
	C178.297409,192.374588 175.524948,191.174820 172.355347,190.189026 
	C169.581665,189.066574 167.156113,188.083420 164.372772,187.076263 
	C163.733673,186.822235 163.452362,186.592239 163.106140,185.908600 
	C163.041229,185.454956 163.171722,185.053329 163.171722,185.053329 
	C163.470886,185.075165 163.728485,184.982040 164.293152,184.471588 
	C164.893768,183.898666 165.145737,183.628082 165.397705,183.357498 
	C165.397705,183.357498 165.461136,183.473190 165.670746,183.412445 
	C165.880341,183.351685 166.019531,183.071289 166.019531,183.071289 
	C166.467178,183.026962 166.914841,182.982635 167.994690,183.022064 
	C169.040573,183.255142 169.454269,183.404465 169.867950,183.553802 
	C177.731705,185.783386 185.595459,188.012985 193.437347,190.689270 
	C193.130539,191.666672 192.845596,192.197418 192.560638,192.728165 
	C192.560654,192.728165 192.722229,192.792358 192.458481,192.844452 
	C192.070206,193.241455 191.945679,193.586349 191.821136,193.931244 
	C191.821136,193.931244 191.919907,193.933823 191.640793,194.047272 
	C191.143494,194.733994 190.925308,195.307266 190.707123,195.880554 
	C190.707123,195.880554 190.716461,195.848923 190.697876,195.844604 
z"/>
<path fill="#0441F7" opacity="1.000000" stroke="none" 
	d="
M159.981018,187.327988 
	C158.344696,189.832993 156.335068,192.124802 154.156616,194.700775 
	C149.829773,194.795837 154.661194,192.645782 153.356720,191.499451 
	C154.628998,188.795456 155.847610,186.437927 157.325317,183.875168 
	C158.258850,184.818207 158.933273,185.966492 159.981018,187.327988 
z"/>
<path fill="#0441F7" opacity="1.000000" stroke="none" 
	d="
M162.815567,185.063293 
	C163.171722,185.053329 163.041229,185.454956 162.988434,185.659393 
	C162.274002,186.318161 161.612350,186.772476 160.671066,187.331329 
	C161.080750,186.648331 161.770081,185.860809 162.815567,185.063293 
z"/>
<path fill="#0441F7" opacity="1.000000" stroke="none" 
	d="
M191.018768,195.767548 
	C190.925308,195.307266 191.143494,194.733994 191.625916,194.000153 
	C191.703583,194.444580 191.516998,195.049561 191.018768,195.767548 
z"/>
<path fill="#0441F7" opacity="1.000000" stroke="none" 
	d="
M192.898056,192.674637 
	C192.845596,192.197418 193.130539,191.666672 193.672272,190.975235 
	C193.697861,191.416718 193.466675,192.018921 192.898056,192.674637 
z"/>
<path fill="#0441F7" opacity="1.000000" stroke="none" 
	d="
M169.826874,183.265778 
	C169.454269,183.404465 169.040573,183.255142 168.327499,182.966080 
	C168.613998,182.876816 169.199890,182.927277 169.826874,183.265778 
z"/>
<path fill="#0441F7" opacity="1.000000" stroke="none" 
	d="
M157.887100,183.659241 
	C157.826996,183.165619 158.111343,182.624893 158.661804,181.929108 
	C158.695770,182.386765 158.463654,182.999451 157.887100,183.659241 
z"/>
<path fill="#0441F7" opacity="1.000000" stroke="none" 
	d="
M192.088531,193.813202 
	C191.945679,193.586349 192.070206,193.241455 192.437378,192.760132 
	C192.571991,192.980850 192.463959,193.338013 192.088531,193.813202 
z"/>
<path fill="#0441F7" opacity="1.000000" stroke="none" 
	d="
M165.083237,183.366577 
	C165.145737,183.628082 164.893768,183.898666 164.373810,184.277161 
	C164.326828,184.048599 164.547791,183.712112 165.083237,183.366577 
z"/>
<path fill="#0441F7" opacity="1.000000" stroke="none" 
	d="
M165.901978,182.897827 
	C166.019531,183.071289 165.880341,183.351685 165.736633,183.409164 
	C165.519424,183.207764 165.445938,182.948898 165.372452,182.690018 
	C165.509781,182.701462 165.647110,182.712906 165.901978,182.897827 
z"/>
<path fill="#D9E9FF" opacity="1.000000" stroke="none" 
	d="
M171.097260,129.190430 
	C168.386169,130.111038 165.675064,131.031631 162.916550,132.317017 
	C162.016083,132.636383 161.163040,132.590942 159.819794,132.779114 
	C158.916809,133.086258 158.504028,133.159775 158.091248,133.233307 
	C157.727509,129.841507 157.296478,126.455246 157.016281,123.056549 
	C156.626755,118.331818 156.350266,113.597771 156.022247,108.447693 
	C159.793701,106.451035 163.568283,104.874382 167.729111,103.582901 
	C168.410034,110.247543 168.558167,116.639084 169.082321,122.999649 
	C169.255768,125.104294 170.397980,127.129112 171.097260,129.190430 
z"/>
<path fill="#0064FA" opacity="1.000000" stroke="none" 
	d="
M157.950104,133.441132 
	C158.504028,133.159775 158.916809,133.086258 159.644043,132.994888 
	C159.070694,133.585358 158.182892,134.193680 156.980042,134.680740 
	C157.046326,134.255981 157.427628,133.952484 157.950104,133.441132 
z"/>
<path fill="#026AFA" opacity="1.000000" stroke="none" 
	d="
M217.553726,162.932312 
	C217.013428,161.957718 216.690323,160.746399 216.611847,159.292023 
	C217.161270,160.264511 217.466095,161.480042 217.553726,162.932312 
z"/>
<path fill="#CFE3FF" opacity="1.000000" stroke="none" 
	d="
M171.505524,129.219070 
	C170.397980,127.129112 169.255768,125.104294 169.082321,122.999649 
	C168.558167,116.639084 168.410034,110.247543 168.067291,103.457588 
	C170.728775,102.691811 173.438309,102.336517 176.569656,101.972733 
	C176.991455,109.924171 176.991455,117.884102 176.991455,125.958702 
	C178.695023,126.718102 180.252914,127.412567 181.901337,128.472900 
	C180.275177,128.899170 178.558487,128.959564 176.417999,129.092255 
	C174.634079,129.192276 173.273926,129.219986 171.505524,129.219070 
z"/>
<path fill="#9CC6FF" opacity="1.000000" stroke="none" 
	d="
M218.912079,139.647949 
	C218.399429,139.669632 217.905807,139.369949 217.412170,139.070251 
	C217.699753,138.749893 217.987350,138.429535 218.553635,138.077087 
	C218.865250,138.472183 218.898178,138.899384 218.912079,139.647949 
z"/>
<path fill="#9CC6FF" opacity="1.000000" stroke="none" 
	d="
M218.827698,134.631012 
	C218.319046,134.642609 217.855423,134.340332 217.391815,134.038055 
	C217.676163,133.731247 217.960510,133.424454 218.514526,133.086548 
	C218.813690,133.476013 218.843216,133.896576 218.827698,134.631012 
z"/>
<path fill="#9CC6FF" opacity="1.000000" stroke="none" 
	d="
M218.682404,130.691544 
	C218.279846,130.769272 217.754150,130.586090 217.073364,130.154099 
	C217.465286,130.080414 218.012253,130.255524 218.682404,130.691544 
z"/>
<path fill="#CFE3FF" opacity="1.000000" stroke="none" 
	d="
M186.002197,128.253937 
	C186.585190,128.269775 187.164307,128.559113 187.833130,129.178894 
	C187.487030,129.442627 187.051224,129.375946 186.306000,129.191925 
	C185.997162,128.892212 185.997742,128.709839 186.002197,128.253937 
z"/>
</svg>